<svg xmlns="http://www.w3.org/2000/svg" xmlns:xlink="http://www.w3.org/1999/xlink" id="Calque_1" x="0px" y="0px" viewBox="0 0 371 330" style="enable-background:new 0 0 371 330;" xml:space="preserve">
<style type="text/css">
	.st0{fill:#BBD0FF;}
	.st1{clip-path:url(#SVGID_00000091723914543911254480000017221191304016428730_);}
	.st2{fill:#333030;}
	.st3{fill:#C6C6C6;}
	.st4{fill:#77A1FF;}
	.st5{fill:#01004F;}
	.st6{fill:#EFA26F;}
	.st7{fill:#FFB27D;}
	.st8{fill:#D38254;}
	.st9{fill:#FFC197;}
	.st10{fill:#231F20;}
	.st11{fill:#D1D3D4;}
	.st12{fill:#FFD3B6;}
	.st13{fill:#F3F8FF;}
</style>
<g>
	<path class="st0" d="M347.9,83.2c-0.7-20.3-24.6-37.4-54-37.4v37.4H347.9z"></path>
</g>
<g>
	<defs>
		<rect id="SVGID_1_" width="360.7" height="329.2"></rect>
	</defs>
	<clipPath id="SVGID_00000020393642202591422520000003416996666453115834_">
		<use xlink:href="#SVGID_1_" style="overflow:visible;"></use>
	</clipPath>
	<g style="clip-path:url(#SVGID_00000020393642202591422520000003416996666453115834_);">
		<path class="st2" d="M147.3,22.5L302.9,0c0.6-0.1,1.2,0.1,1.5,0.6l1.6,1.9c0.1,0.2,0.3,0.4,0.2,0.6l-3.8,138.7    c0.1,1-0.7,2-1.7,2.1h-68.3c-0.5,0-0.9,0.4-0.9,0.9l-3.7,90.6c0,0.1,0,0.1-0.5,0.8l-1.5,1.8l-1,1.3c-0.4,0.5-1,0.8-1.7,0.7    l-14.7-1.1c-0.5,0-0.9-0.4-0.9-0.9L208,145c0-0.5-0.4-0.9-0.9-0.9l-59.8,0.8c-0.5,0-0.9-0.4-0.9-0.9l0.2-120.6    C146.5,22.9,146.9,22.5,147.3,22.5z"></path>
		<path class="st3" d="M296.3,130.6l-146.5,2.1V25.4L300,4.8L296.3,130.6z"></path>
		<path class="st4" d="M298.7,51.2L149.8,66.1V42.8L299.4,24L298.7,51.2z"></path>
		<path class="st5" d="M296.4,130.6l-24,0.5l2-77.4l24.2-2.5L296.4,130.6z"></path>
		<path class="st2" d="M180.3,299l-12.1-10.3c1-0.8,1-4.1,1-4.1l1.5-191.9c0.7-5.9-5.2-7-5.2-7s-49.1-10-53.9-11.1    c-2-0.5-4-0.8-6.1-1c-0.2,0-0.4,0-0.6,0.1l-8.5,2c-2.2,0.4-3.2,5.3-3.2,5.3l2.1,223.6l-15.2,4.9c-3.1,3.6-0.1,4.8-0.1,4.8l5.5,1.7    l-0.1,1.7c0.3,0.9,0.6,1.7,1,2.6c0.5,0.8,1.8,1,3.1,0c0.3-0.2,0.5-0.4,0.6-0.5c0.3,0.2,1.8,0.9,2.3,0.2c0.5-0.7,1.1-1.5,1.1-1.5    l20.9,6.4l2.4,0.5l-0.3,2.4c0,0.5,0.3,1.5,0.7,1.5h4.9c0.6-0.4,0.9-1.1,1-1.8v-2.2c0.5-0.1,0.9-0.3,1.3-0.5l44.1-16.7    c0.3,1.7,1.8,3,3.6,3l2.1-0.8c1,0,2-0.3,2.8-0.8c0,0,1-1,0-1.5c-0.1-1-0.5-2-1.2-2.7l4.6-1.7C183.9,302.4,180.3,299,180.3,299z"></path>
		<path class="st3" d="M164.3,222.3l-52.6,8.1l-1.8-144.9l53.9,8.9L164.3,222.3z"></path>
		<path class="st4" d="M137.4,148.9l-25.3-0.1l-0.7-61l25.3,4.1L137.4,148.9z"></path>
		<path class="st5" d="M163.3,221.4l-50.6,8l-0.5-23.9l51.1-3.9V221.4z"></path>
		<path class="st2" d="M49.7,53.2l1.2,47.8c0,0-0.1,0.1-0.1,0.1l-12.4,2.4c-0.1,0-0.1,0-0.2,0c-0.8-0.1-1.5-0.1-2.3,0.1    c-0.1,0.1-0.3,0.1-0.4,0.1l-2-0.2c-0.1,0-0.3,0-0.4,0.1l-1.1,0.3c-0.1,0-0.2,0.1-0.2,0.2l-0.4,9c0,0.8-0.5,1.5-1.3,1.7    c-0.1,0.1-0.3,0.1-0.5,0.1l-17.8,7.3c-0.1,0-0.1,0-0.1,0c-1.1-0.2-2.2-0.3-3.4-0.3c-0.1,0-0.3-0.1-0.3-0.2c0-1,0.1-4.4,0-4.9    c0-0.1,0-0.1,0-0.1c-0.1-0.4-0.3-0.7-0.5-1c-0.3-0.3-0.7-0.5-1.1-0.4l-2.9,0.3L0.9,116c0,0-0.9,0.2-0.9,2c0,0,0,0,0,0.1v12.6    c0,0,0.4,7.9,0.8,10.6c0,0.1,0,0.2,0,0.3c0,0.5-0.1,2.3,0.9,2.4c0,0,2,0.3,5.2-1.3c0.1-0.1,0.1-0.1,0.1-0.2v-4.3    c0-0.1,0-0.1,0.1-0.2l0.5-0.5c0.1-0.1,0.1-0.1,0.1-0.1l2.5-0.2h0.1l1.6-0.8c0.2-0.1,0.2-0.5,0.2-0.6l0.5-4.1c0-0.1,0-0.2,0-0.3    c-0.1-0.5-0.3-2.1,0-2.3l2.1-1.3c0.1,0,0.1,0,0.2,0c0.3,0.1,0.7,0.1,1.1-0.1l20.6-9.4c0.1,0,0.1-0.1,0.1-0.1l0.5-1    c0.1-0.1,0.1-0.3,0.1-0.5l0.6-3.8c0-0.1,0.1-0.2,0.3-0.2l3.3,0.4c0.1,0,0.2,0,0.2-0.1l0.5-0.7c0.1-0.1,0.1-0.1,0.1-0.1l8.5-1.5    l0.9,38.3l83.2-14.3V67L49.7,53.2z"></path>
		<path class="st3" d="M133.6,133.1l-79.3,13.4l-2.2-91.1l81.5,13.1V133.1z"></path>
		<path class="st5" d="M82.7,140.9l-27.6,4.8l-1.1-43.4l28.5,0.5L82.7,140.9z"></path>
		<path class="st4" d="M82.3,101.7L54,100.9l-1.2-44.5l29.5,4.4V101.7z"></path>
		<path class="st2" d="M337.9,259.5l-0.3,42.7l2.4,8.3c0,0.8-0.4,1.5-1.1,2h-48.9c-0.6-0.7-0.9-1.7-0.7-2.6l2.6-8.5l-0.3-41.9    l-20.7,0.1c0,0-1.9,0.3-1.9-1.3l-0.9-173c0,0,0.1-2.4,1.9-2h89.1c1.3,0.3,1.6,0.5,1.3,5.5l-2.4,166.5c0,1.1,0.3,3.8-0.8,4.1"></path>
		<path class="st3" d="M352.2,223.7l-78.1-0.5v-131h80.3L352.2,223.7z"></path>
		<path class="st5" d="M351.2,137.6h-75.1v19.2h75.1V137.6z"></path>
		<path class="st4" d="M290.8,158.5h-14.5v18.3h14.5V158.5z"></path>
		<path class="st2" d="M313.6,237.8c0-0.1,0-0.2-0.1-0.3l-10.8-45.3c0-0.1-0.1-0.2-0.1-0.3l-0.3-2c-0.3-1.8-3-1.6-3.6-1.5h-0.2h-111    h-0.2c-0.5,0-3-0.3-3.6,1.8l-0.3,1.7c0-0.1,0,0.2-0.1,0.3l-10.8,45.3c0,0.1-0.1,0.2-0.1,0.3c0,0.8-0.1,4.8,1.8,5    c1.9,0.3,38.4,0.1,46.2,0c0.8,0,1.5,0.6,1.5,1.4v9.5c0,0.2,0,0.4-0.1,0.5c-0.1,0.8-0.2,1.5-0.3,2.4c-0.6,4.6-0.9,8.9,0.3,17.9    c0,0.1,0,0.1,0,0.2l1.8,29.1c0,0.1,0,0.3,0,0.4l-2,10.2c-0.1,0.1-0.1,0.3-0.1,0.5c-0.3,0.6-1,2.6,4.4,2.6h34c5.4,0,4.7-2,4.4-2.6    c-0.1-0.1-0.1-0.3-0.1-0.5l-2-10.2c0-0.1,0-0.3,0-0.4l1.8-29.1c0-0.1,0-0.1,0-0.2c1.2-9,0.9-13.3,0.3-17.9c0-0.8-0.1-1.5-0.3-2.4    c-0.1-0.2-0.1-0.4-0.1-0.5v-9.5c0-0.8,0.7-1.5,1.4-1.5c7.8,0.1,44.3,0.3,46.2,0C313.6,242.5,313.6,238.7,313.6,237.8z"></path>
		<path class="st3" d="M309.6,235.9h-133l10-44.7h112.1L309.6,235.9z"></path>
		<path class="st4" d="M205.3,233.1h-25.8l8.5-39.4h25.4L205.3,233.1z"></path>
		<path class="st5" d="M305.8,233.1H268V220h34.8L305.8,233.1z"></path>
	</g>
	<g style="clip-path:url(#SVGID_00000020393642202591422520000003416996666453115834_);">
		<path class="st6" d="M93.9,231.8c0,0-9.5,19-19.1,32.1c-3.8,5.2-7.7,9.5-11,11.3c-3.2,1.7-6,4.5-8.2,7.5    c-5.9,7.8-8.6,17.6-8.6,17.6l-24.7-37.3c0,0,0.8-36.5,3.8-42.6c4.3-8.9,6.4-26.9,8.1-30.4c1.2-2.7,4.7-16.4,5.1-17.4    c0.1-0.4,1.3-1.1,2.8-1.1c1.2,0,3.3,1.2,3.8,3.6c2.6,12.2-0.5,20.3-0.5,20.7c0.9,9.4-1.9,16.4,0.1,18.2c0.1,0.1,0.2,0,0.4-0.1    c3.4-2.2,24.5-32.9,27.1-33.6C75.7,179.5,93.9,231.8,93.9,231.8z"></path>
		<path class="st4" d="M54.4,292c0,0-0.2,11.3-0.9,27.7c-0.2,5.1-4.6,9.1-10,9.1l-24.3,0c-13.2,0-21.8-13-16.2-24.2    c6.6-13.1,11.7-23.2,13.6-27c0.5-1,1.6-1.6,2.8-1.5C26.9,276.5,53.1,279.1,54.4,292z"></path>
		<path class="st7" d="M115.5,167.5l-7.6,11.2l-7.5,11c-0.5,0.6-1,0.7-1.6,0.7c-1.8-0.2-4-2.8-5.8-4.2l-0.2-0.1    c-2.3-1.9-2.6-5.3-0.7-7.6l11.5-13.8v0l3.4-4.1c1.9-2.3,5.3-2.6,7.6-0.7l0.2,0.1C117,161.8,117.4,165.2,115.5,167.5z"></path>
		<path class="st6" d="M107.8,178.7l-7.5,11c-0.5,0.6-1,0.7-1.6,0.7l4.8-25.8C103.6,164.8,104.4,176.3,107.8,178.7z"></path>
		<path class="st8" d="M74.8,263.9c-3.8,5.2-7.7,9.5-11,11.3c-3.2,1.7-6,4.5-8.2,7.5c-2.6-1.2-5.6-2.6-8.5-4    c-3.5-1.7-3.7-6.7-0.2-8.6c0,0,0.1,0,0.1-0.1c3.2-1.9,6.6-8.4,6.6-8.4L74.8,263.9z"></path>
		<path class="st9" d="M39.1,173.1l-2,8.1c0,0,1.7,0.7,2.9,0.2C41.1,180.8,42,173.6,39.1,173.1z"></path>
		<g>
			<path class="st10" d="M98.1,267.7h-46c-3.4,0-6.2-2.8-6.2-6.2v-97.5c0-3.4,2.8-6.2,6.2-6.2h46c3.4,0,6.2,2.8,6.2,6.2v97.5     C104.2,265,101.5,267.7,98.1,267.7z"></path>
			<g>
				<path class="st11" d="M101.4,166.3v92.3c0,3.1-2.5,5.7-5.6,5.7H54.4c-3.1,0-5.6-2.6-5.6-5.7v-92.3c0-3.1,2.5-5.7,5.6-5.7h41.3      C98.8,160.6,101.4,163.2,101.4,166.3z"></path>
			</g>
			<path class="st10" d="M84.9,164.1H65.3c-0.8,0-1.4-0.6-1.4-1.4v-2.8c0-0.8,0.6-1.4,1.4-1.4h19.6c0.8,0,1.4,0.6,1.4,1.4v2.8     C86.3,163.4,85.6,164.1,84.9,164.1z"></path>
		</g>
		<g>
			<path class="st7" d="M108.2,220.6l-5.9,1.6c-1.8,0.5-3.7-0.6-4.2-2.4l-0.2-0.7c-0.5-1.8,0.6-3.7,2.4-4.2l5.9-1.6     c1.8-0.5,3.7,0.6,4.2,2.4l0.2,0.7C111,218.2,110,220.1,108.2,220.6z"></path>
			<path class="st12" d="M105,220.3c-1.1,0.3-3,0.8-4.1,0.9c-0.4,0-1.1-0.3-1.6-1.3c-0.1-0.2-0.2-0.5-0.3-0.8     c-0.1-0.3-0.1-0.6-0.1-0.9c0-0.3,0-0.7,0.1-1c0.1-0.3,0.3-0.6,0.7-0.7c0,0,0,0,0,0c1.1-0.4,2.6-0.9,3.9-1.1c0.9-0.2,1.8,0.3,2,1     l0.2,0.5l0.5,1.6C106.4,219.3,105.9,220.1,105,220.3z"></path>
			<path class="st9" d="M105,220.3c-1.1,0.3-3,0.8-4.1,0.9c-0.4,0-1.1-0.3-1.6-1.3c-0.1-0.3-0.1-0.5-0.1-0.8c0-0.3,0-0.7,0.1-1     c0.1-0.3,0.3-0.6,0.7-0.7c0,0,0,0,0,0c1.1-0.4,2.6-0.9,3.9-1.1c0.7-0.1,1.5,0.1,1.8,0.7l0.5,1.6     C106.4,219.3,105.9,220.1,105,220.3z"></path>
		</g>
		<path class="st5" d="M11.4,288.5c0,0,12.2,11.6,20.4,16.1l6.2-4.4v6.5c0,0,12.2,2.2,16.1,0V289l-34.3-17.2L11.4,288.5z"></path>
		<path class="st13" d="M22.3,261.6c0,0-7.7,11.5-15.4,23.9c0,0,16.2,11.1,24.9,14.4l11.5-13.2l-1.6,15.9c0,0,10.2,3.7,14.9,2.7    c0,0-0.3-14.4-0.3-23.8C56.3,281.5,28.4,273.7,22.3,261.6z"></path>
		<path class="st4" d="M24.2,290.9c0-1.1,0.9-1.9,1.9-1.9c1.1,0,1.9,0.9,1.9,1.9c0,1.1-0.9,1.9-1.9,1.9    C25.1,292.9,24.2,292,24.2,290.9z"></path>
		<rect x="52.2" y="182.4" class="st5" width="45.1" height="42.5"></rect>
		<path class="st8" d="M45.9,238.8c0,0-1.7-14.7-3.2-17.6c-1.6-2.9-2.9-8.6-0.5-12.9c2.4-4.3,3.2-12.5,3.2-12.5    c0.9,9.4-1.9,16.4,0.1,18.2c0.1,0.1,0.2,0,0.4-0.1L45.9,238.8z"></path>
		<g>
			<path class="st7" d="M111.5,198.5c0,0-0.1,0-0.1,0l-7.7,2c-3.4,0.9-6.9-1-7.8-4.1l-0.5-1.6c-0.9-3,1-6.1,4.2-7.2l2.6-0.7l5.2-1.3     c3.4-0.9,6.9,1,7.8,4.1l0.5,1.6C116.4,194.3,114.6,197.4,111.5,198.5z"></path>
			<path class="st12" d="M107.9,196.3l-3.8,1.7c0,0,0,0,0,0c-0.2,0-0.3,0.1-0.5,0.1c-0.1,0-0.1,0-0.2,0c0,0-0.1,0-0.1,0     c-0.4,0-0.7-0.5-0.5-0.8c0.4-0.8,0.5-1.7,0.2-2.6l-0.1-0.3c0,0,0,0,0,0l-0.3-1.1c-0.2-0.9-0.7-1.6-1.4-2.1     c-0.1-0.1-0.2-0.1-0.2-0.2c-0.7-0.5-0.6-1.7,0.3-1.9c0,0,0,0,0,0l4.1-0.6c1-0.3,2,0.5,2.3,1.5l0.3,1.2l0.7,2.6     C109.2,194.9,108.9,196.1,107.9,196.3z"></path>
			<path class="st9" d="M107.9,196.3l-3.8,1.7c0,0,0,0,0,0c-0.1,0-0.4,0.1-0.7,0.1c-0.4,0-0.7-0.5-0.5-0.8c0.4-0.8,0.5-1.7,0.2-2.6     l-0.1-0.3c0,0,0,0,0,0l-0.3-1.1c-0.2-0.9-0.7-1.6-1.4-2.1c0.1-0.2,0.3-0.3,0.6-0.4c0,0,0,0,0,0l4.1-0.6c0.9-0.2,1.7,0.3,2.1,1.1     l0.7,2.6C109.2,194.9,108.9,196.1,107.9,196.3z"></path>
		</g>
		<g>
			<path class="st7" d="M111.7,209.8l-1.1,0.4l-7.7,2.9c-0.2,0.1-0.4,0.1-0.5,0.2c-2.5,0.7-5.2-0.7-6.2-3.2l-0.1-0.3     c-1-2.7,0.3-5.7,3-6.7l7.1-2.7l0.5-0.2l1.1-0.4c2.7-1,5.7,0.3,6.7,3l0.1,0.3C115.7,205.8,114.3,208.8,111.7,209.8z"></path>
			<path class="st12" d="M105.4,210c-1.3,0.5-3.6,1.3-4.8,1.5c-0.3,0.1-1-0.1-1.6-0.8c-0.4-0.4-0.7-1-1-1.7     c-0.1-0.4-0.2-0.7-0.3-1.1c0-0.4,0-0.9,0-1.3c0.1-0.4,0.3-0.8,0.7-0.9c0,0,0,0,0,0c1.3-0.6,3.1-1.4,4.6-1.8     c1.1-0.3,2.2,0.2,2.5,1.1l0.2,0.4l0.8,2.3C107,208.5,106.5,209.6,105.4,210z"></path>
			<path class="st9" d="M105.4,210c-1.3,0.5-3.6,1.3-4.8,1.5c-0.3,0.1-1-0.1-1.6-0.8c-0.1-0.1-0.1-0.3-0.2-0.5     c-0.1-0.4-0.2-0.7-0.3-1.1c0-0.4,0-0.9,0-1.3c0.1-0.4,0.3-0.8,0.7-0.9c0,0,0,0,0,0c1.3-0.6,3.1-1.4,4.6-1.8     c0.7-0.2,1.4-0.1,1.9,0.3l0.8,2.3C107,208.5,106.5,209.6,105.4,210z"></path>
		</g>
	</g>
</g>
<path class="st5" d="M136.4,57c1.2-13.5,1.7-41.3-5.9-43.9C122.9,10.4,131.3,41.3,136.4,57z"></path>
<path class="st5" d="M125.9,51.9c0.5-3.9,0.5-11.9-3.9-12.3C117.7,39.2,122.8,47.6,125.9,51.9z"></path>
<path class="st5" d="M212.8,252.3c0.8,9.5,1.2,28.8-4.2,30.7C203.2,284.9,209.1,263.3,212.8,252.3z"></path>
<path class="st5" d="M205.3,255.9c0.4,2.8,0.3,8.3-2.7,8.6C199.6,264.8,203.1,258.9,205.3,255.9z"></path>
<circle class="st5" cx="369.2" cy="93.8" r="1.8"></circle>
<circle class="st5" cx="369.2" cy="100.5" r="1.8"></circle>
<circle class="st5" cx="369.2" cy="87.1" r="1.8"></circle>
<rect x="52.3" y="228.1" class="st4" width="20.8" height="7.3"></rect>
</svg>